<?xml version="1.0" encoding="utf-8"?>
<!-- Generator: Adobe Illustrator 16.0.0, SVG Export Plug-In . SVG Version: 6.00 Build 0)  -->
<!DOCTYPE svg PUBLIC "-//W3C//DTD SVG 1.1//EN" "http://www.w3.org/Graphics/SVG/1.1/DTD/svg11.dtd">
<svg version="1.1" id="Calque_1" xmlns="http://www.w3.org/2000/svg" xmlns:xlink="http://www.w3.org/1999/xlink" x="0px" y="0px"
	 width="30px" height="30px" viewBox="0 0 283.464 283.464" enable-background="new 0 0 283.464 283.464"
	 xml:space="preserve">
<g>

		<line fill="none" stroke="#3C3D3C" strokeWidth="18" strokeMiterlimit="10" x1="101.743" y1="244.331" x2="120.691" y2="192.75"/>
	<line fill="none" stroke="#3C3D3C" strokeWidth="18" strokeMiterlimit="10" x1="121.734" y1="91.417" x2="114.031" y2="50.334"/>

		<line fill="none" stroke="#3C3D3C" stroke-width="18" strokeMiterlimit="10" x1="169.816" y1="183.276" x2="195.081" y2="213.453"/>
	<line fill="none" stroke="#3C3D3C" stroke-width="18" strokeMiterlimit="10" x1="179.641" y1="123.273" x2="261.75" y2="85.377"/>
	<g>
		<path fill="#00B8DE" d="M208.729,97.393c-4.167-26.907-29.938-47.37-59.118-47.37c-53.432,0-73.517,45.475-73.517,92.845
			c0,45.098,20.085,90.574,73.517,90.574c36.381,0,56.847-24.633,61.393-60.636h57.603
			c-6.063,67.836-52.296,110.658-118.995,110.658c-83.37,0-133.014-62.529-133.014-140.597C16.597,62.529,66.241,0,149.611,0
			c59.118,0,109.521,34.865,116.722,97.394H208.729z"/>
	</g>
	<g>
		<path fill="#ED7E23" d="M139.161,84.465c36.367,0,59.79,24.096,59.79,60.907c0,36.587-23.423,60.682-59.79,60.682
			c-36.143,0-59.568-24.095-59.568-60.682C79.592,108.562,103.018,84.465,139.161,84.465z M139.161,182.184
			c21.64,0,28.11-18.296,28.11-36.812c0-18.519-6.471-37.036-28.11-37.036c-21.418,0-27.888,18.517-27.888,37.036
			C111.272,163.888,117.742,182.184,139.161,182.184z"/>
	</g>
</g>
</svg>
